<svg xmlns:xlink="http://www.w3.org/1999/xlink"  width="98" height="27" viewBox="0 0 98 27" fill="none" xmlns="http://www.w3.org/2000/svg">
<path d="M0.98 11V0.92H2.464L7.427 8.41V0.92H8.911V11H7.427L2.464 3.503V11H0.98ZM10.8648 11V0.92H17.3048V2.299H12.3278V5.127H16.4648V6.506H12.3278V9.621H17.3048V11H10.8648ZM21.1209 11L18.1949 0.92H19.7279L21.8489 8.543L23.9699 0.927L25.5099 0.92L27.6309 8.543L29.7519 0.92H31.2919L28.3589 11H26.9029L24.7399 3.461L22.5769 11H21.1209ZM37.4041 11L34.4781 0.92H36.0111L38.1321 8.543L40.2531 0.927L41.7931 0.92L43.9141 8.543L46.0351 0.92H47.5751L44.6421 11H43.1861L41.0231 3.461L38.8601 11H37.4041ZM47.0652 11L50.3412 0.92H52.4482L55.7242 11H54.2052L51.1882 1.802H51.5662L48.5842 11H47.0652ZM48.7662 8.725V7.353H54.0302V8.725H48.7662ZM58.575 11V6.835L55.166 0.92H56.874L59.317 5.155L61.76 0.92H63.468L60.059 6.835V11H58.575ZM70.894 11.21C69.886 11.21 69.0274 10.9907 68.318 10.552C67.6087 10.1087 67.065 9.49267 66.687 8.704C66.3137 7.91533 66.127 7.00067 66.127 5.96C66.127 4.91933 66.3137 4.00467 66.687 3.216C67.065 2.42733 67.6087 1.81367 68.318 1.375C69.0274 0.931666 69.886 0.71 70.894 0.71C71.8974 0.71 72.7537 0.931666 73.463 1.375C74.177 1.81367 74.7207 2.42733 75.094 3.216C75.4674 4.00467 75.654 4.91933 75.654 5.96C75.654 7.00067 75.4674 7.91533 75.094 8.704C74.7207 9.49267 74.177 10.1087 73.463 10.552C72.7537 10.9907 71.8974 11.21 70.894 11.21ZM70.894 9.817C71.608 9.82633 72.2007 9.67 72.672 9.348C73.148 9.02133 73.505 8.56867 73.743 7.99C73.981 7.40667 74.1 6.73 74.1 5.96C74.1 5.19 73.981 4.518 73.743 3.944C73.505 3.36533 73.148 2.915 72.672 2.593C72.2007 2.271 71.608 2.10767 70.894 2.103C70.18 2.09367 69.585 2.25 69.109 2.572C68.6377 2.894 68.283 3.34667 68.045 3.93C67.807 4.51333 67.6857 5.19 67.681 5.96C67.6764 6.73 67.793 7.40433 68.031 7.983C68.269 8.557 68.626 9.005 69.102 9.327C69.5827 9.649 70.18 9.81233 70.894 9.817ZM77.0503 11V0.92H83.0213V2.383H78.5133V5.225H82.1813V6.695H78.5133V11H77.0503ZM0.98 26V15.92H4.137C4.23033 15.92 4.403 15.9223 4.655 15.927C4.91167 15.9317 5.15667 15.9503 5.39 15.983C6.17867 16.081 6.84133 16.3633 7.378 16.83C7.91933 17.2967 8.32767 17.8893 8.603 18.608C8.87833 19.322 9.016 20.106 9.016 20.96C9.016 21.8187 8.87833 22.6073 8.603 23.326C8.32767 24.04 7.91933 24.6303 7.378 25.097C6.84133 25.559 6.17867 25.839 5.39 25.937C5.15667 25.9697 4.91167 25.9883 4.655 25.993C4.403 25.9977 4.23033 26 4.137 26H0.98ZM2.478 24.607H4.137C4.29567 24.607 4.48467 24.6023 4.704 24.593C4.92333 24.5837 5.117 24.565 5.285 24.537C5.79833 24.439 6.21367 24.2173 6.531 23.872C6.853 23.522 7.08867 23.0927 7.238 22.584C7.38733 22.0753 7.462 21.534 7.462 20.96C7.462 20.3673 7.385 19.819 7.231 19.315C7.077 18.8063 6.839 18.3817 6.517 18.041C6.19967 17.6957 5.789 17.4763 5.285 17.383C5.117 17.3503 4.921 17.3317 4.697 17.327C4.47767 17.3177 4.291 17.313 4.137 17.313H2.478V24.607ZM14.853 26.21C13.845 26.21 12.9863 25.9907 12.277 25.552C11.5677 25.1087 11.024 24.4927 10.646 23.704C10.2727 22.9153 10.086 22.0007 10.086 20.96C10.086 19.9193 10.2727 19.0047 10.646 18.216C11.024 17.4273 11.5677 16.8137 12.277 16.375C12.9863 15.9317 13.845 15.71 14.853 15.71C15.8563 15.71 16.7127 15.9317 17.422 16.375C18.136 16.8137 18.6797 17.4273 19.053 18.216C19.4263 19.0047 19.613 19.9193 19.613 20.96C19.613 22.0007 19.4263 22.9153 19.053 23.704C18.6797 24.4927 18.136 25.1087 17.422 25.552C16.7127 25.9907 15.8563 26.21 14.853 26.21ZM14.853 24.817C15.567 24.8263 16.1597 24.67 16.631 24.348C17.107 24.0213 17.464 23.5687 17.702 22.99C17.94 22.4067 18.059 21.73 18.059 20.96C18.059 20.19 17.94 19.518 17.702 18.944C17.464 18.3653 17.107 17.915 16.631 17.593C16.1597 17.271 15.567 17.1077 14.853 17.103C14.139 17.0937 13.544 17.25 13.068 17.572C12.5967 17.894 12.242 18.3467 12.004 18.93C11.766 19.5133 11.6447 20.19 11.64 20.96C11.6353 21.73 11.752 22.4043 11.99 22.983C12.228 23.557 12.585 24.005 13.061 24.327C13.5417 24.649 14.139 24.8123 14.853 24.817ZM21.1493 26V15.92H22.6123V26H21.1493ZM24.7144 26V15.92H26.1984L31.1614 23.41V15.92H32.6454V26H31.1614L26.1984 18.503V26H24.7144ZM38.7221 26.21C38.0455 26.21 37.4225 26.0933 36.8531 25.86C36.2838 25.622 35.7891 25.2767 35.3691 24.824C34.9491 24.3713 34.6225 23.8207 34.3891 23.172C34.1558 22.5233 34.0391 21.786 34.0391 20.96C34.0391 19.8727 34.2375 18.9393 34.6341 18.16C35.0308 17.376 35.5815 16.774 36.2861 16.354C36.9908 15.9293 37.8028 15.717 38.7221 15.717C39.9075 15.717 40.8525 15.9923 41.5571 16.543C42.2665 17.0937 42.7495 17.8543 43.0061 18.825L41.5221 19.091C41.3168 18.489 40.9855 18.0083 40.5281 17.649C40.0708 17.2897 39.4968 17.1077 38.8061 17.103C38.0921 17.0983 37.4971 17.257 37.0211 17.579C36.5498 17.901 36.1951 18.3537 35.9571 18.937C35.7191 19.5157 35.5978 20.19 35.5931 20.96C35.5885 21.73 35.7051 22.4043 35.9431 22.983C36.1811 23.557 36.5381 24.005 37.0141 24.327C37.4948 24.649 38.0921 24.8123 38.8061 24.817C39.3801 24.8263 39.8725 24.7213 40.2831 24.502C40.6985 24.278 41.0275 23.9513 41.2701 23.522C41.5128 23.0927 41.6691 22.5653 41.7391 21.94H39.7791V20.764H43.2931C43.3025 20.848 43.3095 20.96 43.3141 21.1C43.3188 21.2353 43.3211 21.3217 43.3211 21.359C43.3211 22.2923 43.1415 23.1253 42.7821 23.858C42.4228 24.5907 41.9001 25.167 41.2141 25.587C40.5281 26.0023 39.6975 26.21 38.7221 26.21ZM50.0321 26V17.299H46.6791V15.92H54.8481V17.299H51.4951V26H50.0321ZM55.9683 26V15.92H57.4313V20.267H62.4713V15.92H63.9413V26H62.4713V21.646H57.4313V26H55.9683ZM66.0477 26V15.92H67.5107V26H66.0477ZM69.6128 26V15.92H71.0968L76.0598 23.41V15.92H77.5438V26H76.0598L71.0968 18.503V26H69.6128ZM83.6206 26.21C82.9439 26.21 82.3209 26.0933 81.7516 25.86C81.1822 25.622 80.6876 25.2767 80.2676 24.824C79.8476 24.3713 79.5209 23.8207 79.2876 23.172C79.0542 22.5233 78.9376 21.786 78.9376 20.96C78.9376 19.8727 79.1359 18.9393 79.5326 18.16C79.9292 17.376 80.4799 16.774 81.1846 16.354C81.8892 15.9293 82.7012 15.717 83.6206 15.717C84.8059 15.717 85.7509 15.9923 86.4556 16.543C87.1649 17.0937 87.6479 17.8543 87.9046 18.825L86.4206 19.091C86.2152 18.489 85.8839 18.0083 85.4266 17.649C84.9692 17.2897 84.3952 17.1077 83.7046 17.103C82.9906 17.0983 82.3956 17.257 81.9196 17.579C81.4482 17.901 81.0936 18.3537 80.8556 18.937C80.6176 19.5157 80.4962 20.19 80.4916 20.96C80.4869 21.73 80.6036 22.4043 80.8416 22.983C81.0796 23.557 81.4366 24.005 81.9126 24.327C82.3932 24.649 82.9906 24.8123 83.7046 24.817C84.2786 24.8263 84.7709 24.7213 85.1816 24.502C85.5969 24.278 85.9259 23.9513 86.1686 23.522C86.4112 23.0927 86.5676 22.5653 86.6376 21.94H84.6776V20.764H88.1916C88.2009 20.848 88.2079 20.96 88.2126 21.1C88.2172 21.2353 88.2196 21.3217 88.2196 21.359C88.2196 22.2923 88.0399 23.1253 87.6806 23.858C87.3212 24.5907 86.7986 25.167 86.1126 25.587C85.4266 26.0023 84.5959 26.21 83.6206 26.21ZM93.2688 26.21C92.5454 26.21 91.8921 26.0863 91.3088 25.839C90.7301 25.587 90.2518 25.23 89.8738 24.768C89.5004 24.3013 89.2578 23.7483 89.1458 23.109L90.6718 22.878C90.8258 23.494 91.1478 23.9747 91.6378 24.32C92.1278 24.6607 92.6994 24.831 93.3528 24.831C93.7588 24.831 94.1321 24.768 94.4728 24.642C94.8134 24.5113 95.0864 24.327 95.2918 24.089C95.5018 23.8463 95.6068 23.557 95.6068 23.221C95.6068 23.039 95.5741 22.878 95.5088 22.738C95.4481 22.598 95.3618 22.4767 95.2498 22.374C95.1424 22.2667 95.0094 22.1757 94.8508 22.101C94.6968 22.0217 94.5264 21.954 94.3398 21.898L91.7568 21.135C91.5048 21.0603 91.2481 20.9647 90.9868 20.848C90.7254 20.7267 90.4851 20.5703 90.2658 20.379C90.0511 20.183 89.8761 19.9427 89.7408 19.658C89.6054 19.3687 89.5378 19.0187 89.5378 18.608C89.5378 17.9873 89.6964 17.4623 90.0138 17.033C90.3358 16.599 90.7698 16.2723 91.3158 16.053C91.8618 15.829 92.4731 15.717 93.1498 15.717C93.8311 15.7263 94.4401 15.8477 94.9768 16.081C95.5181 16.3143 95.9661 16.6503 96.3208 17.089C96.6801 17.523 96.9274 18.0503 97.0628 18.671L95.4948 18.937C95.4248 18.559 95.2754 18.2347 95.0468 17.964C94.8181 17.6887 94.5381 17.4787 94.2068 17.334C93.8754 17.1847 93.5161 17.1077 93.1288 17.103C92.7554 17.0937 92.4124 17.1497 92.0998 17.271C91.7918 17.3923 91.5444 17.5627 91.3578 17.782C91.1758 18.0013 91.0848 18.2533 91.0848 18.538C91.0848 18.818 91.1664 19.0443 91.3298 19.217C91.4931 19.3897 91.6938 19.5273 91.9318 19.63C92.1744 19.728 92.4148 19.8097 92.6528 19.875L94.5148 20.4C94.7481 20.4653 95.0118 20.554 95.3058 20.666C95.6044 20.7733 95.8914 20.925 96.1668 21.121C96.4468 21.317 96.6778 21.5783 96.8598 21.905C97.0418 22.227 97.1328 22.633 97.1328 23.123C97.1328 23.6317 97.0301 24.0797 96.8248 24.467C96.6194 24.8497 96.3371 25.1717 95.9778 25.433C95.6231 25.6897 95.2124 25.8833 94.7458 26.014C94.2791 26.1447 93.7868 26.21 93.2688 26.21Z" fill="white"/>
</svg>
